<svg width="400" height="300" viewBox="0 0 400 300" fill="none" xmlns="http://www.w3.org/2000/svg">
  <!-- 背景 -->
  <rect width="400" height="300" rx="8" fill="#E6F1FC"/>
  
  <!-- 知识库图标 -->
  <rect x="80" y="60" width="100" height="120" rx="4" fill="white" stroke="#409EFF" stroke-width="2"/>
  <line x1="100" y1="80" x2="160" y2="80" stroke="#409EFF" stroke-width="2" stroke-linecap="round"/>
  <line x1="100" y1="100" x2="160" y2="100" stroke="#409EFF" stroke-width="2" stroke-linecap="round"/>
  <line x1="100" y1="120" x2="140" y2="120" stroke="#409EFF" stroke-width="2" stroke-linecap="round"/>
  <line x1="100" y1="140" x2="160" y2="140" stroke="#409EFF" stroke-width="2" stroke-linecap="round"/>
  <line x1="100" y1="160" x2="130" y2="160" stroke="#409EFF" stroke-width="2" stroke-linecap="round"/>
  
  <!-- 商城图标 -->
  <rect x="220" y="60" width="100" height="120" rx="4" fill="white" stroke="#409EFF" stroke-width="2"/>
  <circle cx="250" cy="90" r="15" fill="#409EFF" fill-opacity="0.2" stroke="#409EFF" stroke-width="2"/>
  <circle cx="290" cy="90" r="15" fill="#409EFF" fill-opacity="0.2" stroke="#409EFF" stroke-width="2"/>
  <rect x="240" y="120" width="60" height="40" rx="4" fill="#409EFF" fill-opacity="0.2" stroke="#409EFF" stroke-width="2"/>
  
  <!-- 连接线 -->
  <path d="M130 200C130 220 170 220 200 240C230 220 270 220 270 200" stroke="#409EFF" stroke-width="2" stroke-linecap="round"/>
  
  <!-- 装饰圆点 -->
  <circle cx="80" cy="220" r="8" fill="#409EFF"/>
  <circle cx="320" cy="220" r="8" fill="#409EFF"/>
  <circle cx="200" cy="250" r="10" fill="#409EFF"/>
</svg>